inDegrees=no
num_controls=7
num_derivatives=13
num_iterations=105
num_multipliers=7
num_parameters=0
num_slacks=7
num_states=26
objective=0.448623
objective_accelerations=0.047650
objective_balance=0.007787
objective_effort=0.036941
objective_height=0.351302
objective_ligament=0.004942
solver_duration=1560.854104
status=Solve_Succeeded
success=true
DataType=double
version=3
OpenSimVersion=4.5
endheader
time	/jointset/ground_pelvis/pelvis_tilt/value	/jointset/ground_pelvis/pelvis_tx/value	/jointset/ground_pelvis/pelvis_ty/value	/jointset/hip_l/hip_flexion_l/value	/jointset/hip_l/hip_adduction_l/value	/jointset/hip_l/hip_rotation_l/value	/jointset/back/lumbar_extension/value	/jointset/patellofemoral_l/patellar_flexion_l/value	/jointset/knee_l/knee_flexion_l/value	/jointset/knee_l/knee_adduction_l/value	/jointset/knee_l/knee_rotation_l/value	/jointset/ankle_l/ankle_angle_l/value	/jointset/subtalar_l/subtalar_angle_l/value	/jointset/ground_pelvis/pelvis_tilt/speed	/jointset/ground_pelvis/pelvis_tx/speed	/jointset/ground_pelvis/pelvis_ty/speed	/jointset/hip_l/hip_flexion_l/speed	/jointset/hip_l/hip_adduction_l/speed	/jointset/hip_l/hip_rotation_l/speed	/jointset/back/lumbar_extension/speed	/jointset/patellofemoral_l/patellar_flexion_l/speed	/jointset/knee_l/knee_flexion_l/speed	/jointset/knee_l/knee_adduction_l/speed	/jointset/knee_l/knee_rotation_l/speed	/jointset/ankle_l/ankle_angle_l/speed	/jointset/subtalar_l/subtalar_angle_l/speed	/forceset/tau_hip_flexion_l	/forceset/tau_hip_adduction_l	/forceset/tau_hip_rotation_l	/forceset/tau_knee_flexion_l	/forceset/tau_ankle_angle_l	/forceset/tau_subtalar_angle_l	/forceset/tau_lumbar_extension	lambda_cid13_p0	lambda_cid13_p1	lambda_cid13_p2	lambda_cid13_p3	lambda_cid13_p4	lambda_cid13_p5	lambda_cid14_p0	/jointset/ground_pelvis/pelvis_tilt/accel	/jointset/ground_pelvis/pelvis_tx/accel	/jointset/ground_pelvis/pelvis_ty/accel	/jointset/hip_l/hip_flexion_l/accel	/jointset/hip_l/hip_adduction_l/accel	/jointset/hip_l/hip_rotation_l/accel	/jointset/back/lumbar_extension/accel	/jointset/patellofemoral_l/patellar_flexion_l/accel	/jointset/knee_l/knee_flexion_l/accel	/jointset/knee_l/knee_adduction_l/accel	/jointset/knee_l/knee_rotation_l/accel	/jointset/ankle_l/ankle_angle_l/accel	/jointset/subtalar_l/subtalar_angle_l/accel	gamma_cid13_p0	gamma_cid13_p1	gamma_cid13_p2	gamma_cid13_p3	gamma_cid13_p4	gamma_cid13_p5	gamma_cid14_p0
0	-0.1593808075547145	0.05828214858459309	0.8979730591704094	0.3774924667018715	-0.259512377453717	-0.266494434974016	-0.01265067647494873	0.03223648243721455	0.03223648243721463	-0.1745237269324099	0.1683475618125961	-0.04231377076293093	-0.009712138571412544	0	0	0	0	0	0	0	0	0	0	0	0	0	0.1548889114282259	-0.05954935219533002	-0.05210728485515539	-0.314368836594201	0.3268366651436851	-0.06815542106228223	-0.097148640860864	61.76321469090487	12.35416218344491	4.97424758592876	-7.882739416066439	-590.7620826812409	-53.18091334557076	-38.88083009344574	-4.338154473575479	-2.074200728639978	-1.09568983259189	12.1988872178608	-1.28225508525278	2.975447301912166	-5.684704779986798	8.644597428341832	8.64459742834223	-0.1362999910106359	0.02582160513125464	0.8273229551402473	-1.116953634900973	-1.030358438275148e-07	-2.691234625016163e-08	3.624446265709841e-07	2.783737460585186e-08	-8.055061560238047e-08	-1.682488795812203e-07	-6.751637737695216e-08
0.01	-0.1595887877519787	0.05817828867069431	0.897919641806165	0.3780890179616433	-0.2595735511279639	-0.2663472529019387	-0.01293799517360481	0.03266086148333525	0.03266086148333507	-0.1745267578305755	0.1683475291160967	-0.04227484715678499	-0.009765646089672585	-0.04118835225721702	-0.02082307433477375	-0.01062803400230614	0.1188993519689422	-0.01189960551419011	0.02917985693545314	-0.0572847318096749	0.08471424237976419	0.0847142423797646	-2.52139950724828e-05	0.0001543660432302061	0.007751175118580399	-0.010378714627942	0.143384101618179	-0.06706435600928247	-0.04922007737838358	-0.2959044694911604	0.2969416930692918	-0.04959791785334187	-0.08892639124828788	52.80234381260153	6.078731188079293	5.729014905701857	-1.775374630471743	-591.5909961703182	-64.52883026602304	-38.89301874757122	-3.948036645694468	-2.094018951538899	-1.038060467187774	11.67380828481532	-1.0935785628689	2.850710558448827	-5.723506193227564	8.360616119416708	8.360616119416523	0.1515506254306132	0.03431912249539662	0.7439764285662424	-0.9499491312292613	-6.823397258971886e-08	7.047926761198377e-08	1.753382276098679e-07	2.900720495936582e-08	-1.131725292317207e-07	-4.36140931441703e-08	-2.934025150912633e-08
0.02	-0.1601964236805952	0.05786466638031038	0.8977616040452701	0.3798622325607853	-0.2597436739130259	-0.2659159811266895	-0.01379279095271155	0.03392753864857787	0.03392753864857789	-0.1745126043228447	0.1683538550837453	-0.04215941947178343	-0.009913264505109718	-0.0799311462704077	-0.0419524752952596	-0.02092407933012475	0.2353326678740605	-0.02178982216306402	0.05681794063438379	-0.1134954160901314	0.1684596238244483	0.168459623824447	0.003436881179302175	0.001271732829520171	0.01530081577113307	-0.01882217943542195	0.1318792918081316	-0.07457935982323512	-0.0463328699016101	-0.2774401023881209	0.2670467209948968	-0.03104041464440182	-0.08070414163571175	43.91709317501533	-0.2083591592263201	6.483838366785704	4.223036253071998	-591.2546970811144	-75.77441169733555	-38.92937281329274	-3.849042824768984	-2.135466053782397	-1.029292097694384	11.70568000509603	-0.880377312190842	2.667092654607669	-5.469895274142347	8.450825241325807	8.450825241325791	0.5611618430788536	0.218421753743206	0.7870160619347015	-0.7299036708085607	-3.343210135192288e-08	1.678708814741292e-07	-1.17681713512483e-08	3.017703531287978e-08	-1.457944428610609e-07	8.102069329287974e-08	8.835874358699494e-09
0.03	-0.1611828873638648	0.05733980378840565	0.8975016713830893	0.3827870110333441	-0.2600066122835067	-0.2652137796326389	-0.01520065429646032	0.03602382455261973	0.03602382455261988	-0.1744549614323507	0.1683733812208597	-0.0419702065438696	-0.01013972450211042	-0.1172807375481081	-0.06291036957982643	-0.03106108621300171	0.3491076918681993	-0.03087326427981928	0.08358467631508544	-0.1675679617137975	0.250310184857686	0.2503101848576856	0.007782483114496822	0.00251550256759265	0.02242734182032211	-0.0265716034439093	0.1260635906188069	-0.0692130070929998	-0.04546068649558834	-0.272096211790171	0.2618373892899066	-0.03322697273447137	-0.07588249128169608	42.20242542403229	0.9261008351506792	6.434774244653825	4.702850357347975	-590.9550480017809	-72.56267124153186	-38.98906159205441	-3.665791734733653	-2.059494049778345	-1.005729240329484	11.1361080270421	-0.9336547443860012	2.675820600117402	-5.299540564604595	7.979063793962202	7.979063793962275	0.3249002602216415	0.05966720637478926	0.6583051081767402	-0.8127533541849055	-6.555748837568577e-08	1.729194691357844e-07	8.046487626097018e-08	4.805564987317009e-08	-2.463523186003848e-07	5.897126479822677e-08	-7.249669529406139e-09
